<svg width="42" height="42" viewBox="0 0 42 42" fill="none" xmlns="http://www.w3.org/2000/svg">
<path d="M2.4397 1.77679H5.7439C7.79478 1.77679 9.40888 3.54518 9.23797 5.57978L7.66183 24.5186C7.39598 27.6181 9.84562 30.2802 12.9599 30.2802H33.1838C35.9183 30.2802 38.311 28.0364 38.5199 25.3173L39.5454 11.0561C39.7732 7.8996 37.3805 5.33259 34.2093 5.33259H9.69374" stroke="#257F63" stroke-width="3" stroke-miterlimit="10" stroke-linecap="round" stroke-linejoin="round"/>
<path d="M29.6173 40.2232C31.0818 40.2232 32.2688 39.1846 32.2688 37.9032C32.2688 36.6218 31.0818 35.5831 29.6173 35.5831C28.1529 35.5831 26.9659 36.6218 26.9659 37.9032C26.9659 39.1846 28.1529 40.2232 29.6173 40.2232Z" stroke="#257F63" stroke-width="3" stroke-miterlimit="10" stroke-linecap="round" stroke-linejoin="round"/>
<path d="M14.0399 40.2232C15.3213 40.2232 16.36 39.1846 16.36 37.9032C16.36 36.6218 15.3213 35.5831 14.0399 35.5831C12.7586 35.5831 11.7199 36.6218 11.7199 37.9032C11.7199 39.1846 12.7586 40.2232 14.0399 40.2232Z" stroke="#257F65" stroke-width="3" stroke-miterlimit="10" stroke-linecap="round" stroke-linejoin="round"/>
<path d="M15.6971 13.0456H38.8975" stroke="#257F65" stroke-width="3" stroke-miterlimit="10" stroke-linecap="round" stroke-linejoin="round"/>
</svg>
