<svg width="54" height="54" viewBox="0 0 54 54" fill="none" xmlns="http://www.w3.org/2000/svg">
<path d="M27.0101 0.333313C12.2901 0.333313 0.343384 12.28 0.343384 27C0.343384 41.72 12.2901 53.6666 27.0101 53.6666C41.7301 53.6666 53.6767 41.72 53.6767 27C53.6767 12.28 41.7301 0.333313 27.0101 0.333313ZM27.0101 48.3333C15.2501 48.3333 5.67672 38.76 5.67672 27C5.67672 15.24 15.2501 5.66665 27.0101 5.66665C38.7701 5.66665 48.3434 15.24 48.3434 27C48.3434 38.76 38.7701 48.3333 27.0101 48.3333ZM39.2501 15.2133L21.6767 32.7866L14.7701 25.9066L11.0101 29.6666L21.6767 40.3333L43.0101 19L39.2501 15.2133Z" fill="#257F63"/>
</svg>
