<svg xmlns="http://www.w3.org/2000/svg" width="33" height="33" viewBox="0 0 33 33" fill="none">
  <path d="M27.5498 6.94116H22.5498V5.94116C22.5498 5.14551 22.2337 4.38245 21.6711 3.81984C21.1085 3.25723 20.3455 2.94116 19.5498 2.94116H13.5498C12.7542 2.94116 11.9911 3.25723 11.4285 3.81984C10.8659 4.38245 10.5498 5.14551 10.5498 5.94116V6.94116H5.5498C5.28459 6.94116 5.03023 7.04652 4.8427 7.23406C4.65516 7.42159 4.5498 7.67595 4.5498 7.94116C4.5498 8.20638 4.65516 8.46073 4.8427 8.64827C5.03023 8.8358 5.28459 8.94116 5.5498 8.94116H6.5498V26.9412C6.5498 27.4716 6.76052 27.9803 7.13559 28.3554C7.51066 28.7304 8.01937 28.9412 8.5498 28.9412H24.5498C25.0802 28.9412 25.5889 28.7304 25.964 28.3554C26.3391 27.9803 26.5498 27.4716 26.5498 26.9412V8.94116H27.5498C27.815 8.94116 28.0694 8.8358 28.2569 8.64827C28.4444 8.46073 28.5498 8.20638 28.5498 7.94116C28.5498 7.67595 28.4444 7.42159 28.2569 7.23406C28.0694 7.04652 27.815 6.94116 27.5498 6.94116ZM12.5498 5.94116C12.5498 5.67595 12.6552 5.42159 12.8427 5.23406C13.0302 5.04652 13.2846 4.94116 13.5498 4.94116H19.5498C19.815 4.94116 20.0694 5.04652 20.2569 5.23406C20.4444 5.42159 20.5498 5.67595 20.5498 5.94116V6.94116H12.5498V5.94116ZM24.5498 26.9412H8.5498V8.94116H24.5498V26.9412ZM14.5498 13.9412V21.9412C14.5498 22.2064 14.4444 22.4607 14.2569 22.6483C14.0694 22.8358 13.815 22.9412 13.5498 22.9412C13.2846 22.9412 13.0302 22.8358 12.8427 22.6483C12.6552 22.4607 12.5498 22.2064 12.5498 21.9412V13.9412C12.5498 13.6759 12.6552 13.4216 12.8427 13.2341C13.0302 13.0465 13.2846 12.9412 13.5498 12.9412C13.815 12.9412 14.0694 13.0465 14.2569 13.2341C14.4444 13.4216 14.5498 13.6759 14.5498 13.9412ZM20.5498 13.9412V21.9412C20.5498 22.2064 20.4444 22.4607 20.2569 22.6483C20.0694 22.8358 19.815 22.9412 19.5498 22.9412C19.2846 22.9412 19.0302 22.8358 18.8427 22.6483C18.6552 22.4607 18.5498 22.2064 18.5498 21.9412V13.9412C18.5498 13.6759 18.6552 13.4216 18.8427 13.2341C19.0302 13.0465 19.2846 12.9412 19.5498 12.9412C19.815 12.9412 20.0694 13.0465 20.2569 13.2341C20.4444 13.4216 20.5498 13.6759 20.5498 13.9412Z" fill="#333333"/>
</svg>