<?xml version="1.0" encoding="UTF-8" standalone="no"?>
<!DOCTYPE svg PUBLIC "-//W3C//DTD SVG 1.1//EN" "http://www.w3.org/Graphics/SVG/1.1/DTD/svg11.dtd">
<svg xmlns="http://www.w3.org/2000/svg" version="1.1" viewBox="0.00 0.00 538.00 464.00">
<path stroke="#1d624f" stroke-opacity="0.969" stroke-width="2.00" fill="none" stroke-linecap="butt" vector-effect="non-scaling-stroke" d="
  M 211.81 302.03
  Q 210.71 303.77 211.18 304.92"
/>
<path fill="#024c3c" d="
  M 279.85 20.43
  Q 280.00 18.49 280.25 17.05
  A 2.21 2.21 0.0 0 0 278.23 14.47
  Q 272.79 14.09 267.12 13.46
  C 259.56 12.63 262.75 2.33 270.74 2.77
  Q 281.37 3.35 303.25 4.99
  Q 309.17 5.44 309.54 10.41
  C 310.11 18.07 297.51 15.73 293.40 15.44
  A 1.38 1.38 0.0 0 0 291.92 16.76
  Q 291.03 36.85 289.77 56.01
  C 289.40 61.69 281.49 63.65 278.98 59.06
  Q 278.15 57.54 278.23 53.80
  Q 278.58 37.10 279.85 20.43
  Z"
/>
<rect fill="#024c3c" x="-5.96" y="-28.63" transform="translate(247.00,34.02) rotate(-6.6)" width="11.92" height="57.26" rx="5.82"/>
<path fill="#024c3c" d="
  M 181.52 44.19
  Q 181.56 44.39 181.66 44.70
  Q 185.85 57.51 190.16 70.30
  Q 191.28 73.63 190.94 75.35
  C 190.20 79.15 184.86 80.86 181.75 78.66
  Q 180.23 77.59 179.21 74.65
  Q 171.88 53.61 164.67 32.53
  C 162.52 26.26 167.34 21.92 173.21 25.31
  Q 184.91 32.07 196.38 38.85
  A 0.96 0.95 25.7 0 0 197.76 38.37
  Q 202.49 25.82 208.02 13.51
  C 210.31 8.39 216.00 8.20 218.13 13.58
  Q 228.10 38.77 233.52 58.24
  C 235.29 64.62 225.10 68.22 222.09 59.71
  Q 217.46 46.64 212.88 33.29
  A 0.69 0.69 0.0 0 0 211.59 33.26
  L 204.89 50.48
  A 4.73 4.73 0.0 0 1 198.05 52.83
  L 182.50 43.51
  A 0.66 0.65 10.2 0 0 181.52 44.19
  Z"
/>
<path fill="#024c3c" d="
  M 338.69 18.44
  C 344.55 11.54 351.22 14.15 352.07 22.86
  Q 354.43 46.92 356.75 71.00
  Q 357.23 75.95 353.01 77.03
  C 349.67 77.89 347.14 75.34 345.55 72.73
  Q 345.33 72.36 345.32 71.94
  L 345.10 65.56
  A 1.90 1.90 0.0 0 0 343.76 63.80
  L 323.16 57.49
  A 2.49 2.47 29.2 0 0 320.59 58.21
  L 315.36 64.06
  Q 315.03 64.42 314.54 64.46
  C 310.36 64.81 303.60 60.49 307.38 55.88
  Q 322.87 37.02 338.69 18.44
  Z
  M 329.57 46.76
  A 0.81 0.81 0.0 0 0 329.97 48.03
  L 342.79 51.97
  A 0.81 0.81 0.0 0 0 343.83 51.14
  L 342.53 32.59
  A 0.81 0.81 0.0 0 0 341.08 32.14
  L 329.57 46.76
  Z"
/>
<path fill="#024c3c" d="
  M 402.44 82.36
  A 0.57 0.57 0.0 0 0 403.51 82.54
  Q 410.25 68.89 419.93 57.21
  C 423.31 53.13 428.79 55.67 430.20 60.05
  A 1.45 1.43 47.9 0 1 430.16 61.01
  C 424.27 75.51 412.46 90.76 404.64 101.66
  C 402.46 104.70 399.96 106.84 396.47 104.31
  C 394.79 103.10 393.51 101.46 393.25 99.22
  Q 390.81 78.13 388.39 56.96
  Q 388.26 55.79 387.17 56.23
  Q 387.04 56.28 386.66 56.87
  Q 379.91 67.31 372.82 77.52
  C 370.06 81.50 367.16 85.99 362.20 82.21
  C 358.68 79.52 359.70 76.36 361.87 73.01
  Q 378.28 47.63 386.68 35.43
  C 390.41 30.00 396.73 34.74 397.25 39.76
  Q 399.49 61.26 402.44 82.36
  Z"
/>
<path fill="#024c3c" d="
  M 158.59 72.26
  A 0.79 0.78 18.7 0 0 159.07 73.22
  Q 165.37 75.52 171.75 77.76
  C 174.15 78.60 175.93 79.56 175.98 82.41
  C 176.15 93.97 156.68 85.09 152.29 83.17
  A 2.56 2.55 -51.6 0 0 149.74 83.47
  L 142.70 88.74
  A 1.26 1.26 0.0 0 0 142.47 90.54
  C 144.56 93.14 148.60 98.09 148.93 101.45
  C 149.54 107.86 141.46 109.30 138.09 104.67
  Q 117.35 76.07 110.83 66.42
  C 109.39 64.28 110.76 62.13 112.48 60.43
  C 119.54 53.44 130.93 45.55 141.10 46.08
  C 154.67 46.78 162.49 59.55 158.59 72.26
  Z
  M 124.98 66.07
  L 134.44 79.32
  A 1.58 1.58 0.0 0 0 136.64 79.69
  L 142.81 75.30
  A 10.99 9.58 -35.5 0 0 146.19 61.12
  L 146.03 60.89
  A 10.99 9.58 -35.5 0 0 131.52 59.47
  L 125.35 63.87
  A 1.58 1.58 0.0 0 0 124.98 66.07
  Z"
/>
<path fill="#024c3c" d="
  M 463.90 259.84
  A 191.48 191.48 0.0 0 1 272.42 451.32
  A 191.48 191.48 0.0 0 1 80.94 259.84
  A 191.48 191.48 0.0 0 1 272.42 68.36
  A 191.48 191.48 0.0 0 1 463.90 259.84
  Z
  M 452.54 259.84
  A 180.05 180.05 0.0 0 0 272.49 79.79
  A 180.05 180.05 0.0 0 0 92.44 259.84
  A 180.05 180.05 0.0 0 0 272.49 439.89
  A 180.05 180.05 0.0 0 0 452.54 259.84
  Z"
/>
<path fill="#024c3c" d="
  M 445.05 80.06
  A 7.21 7.21 0.0 0 1 455.20 81.02
  L 462.82 90.24
  A 31.83 29.05 50.4 0 1 460.73 133.28
  L 460.50 133.47
  A 31.83 29.05 50.4 0 1 417.83 127.47
  L 410.20 118.25
  A 7.21 7.21 0.0 0 1 411.16 108.10
  L 445.05 80.06
  Z
  M 448.53 92.30
  L 422.80 114.13
  A 1.44 1.44 0.0 0 0 422.63 116.15
  L 427.66 122.09
  A 18.20 17.97 49.7 0 0 453.14 124.35
  L 453.66 123.91
  A 18.20 17.97 49.7 0 0 455.59 98.40
  L 450.56 92.47
  A 1.44 1.44 0.0 0 0 448.53 92.30
  Z"
/>
<path fill="#024c3c" d="
  M 132.20 107.62
  C 137.98 109.53 137.32 115.48 132.64 117.82
  C 130.09 119.09 125.97 117.30 123.34 116.50
  A 1.90 1.89 -61.5 0 0 121.36 117.09
  L 106.92 134.39
  A 1.36 1.36 0.0 0 0 107.04 136.26
  C 115.56 144.15 105.69 156.40 99.07 144.59
  Q 87.00 123.04 76.08 100.89
  Q 75.87 100.47 75.92 100.00
  C 76.78 91.61 82.31 92.00 88.85 93.95
  Q 110.65 100.46 132.20 107.62
  Z
  M 100.20 123.53
  A 0.86 0.86 0.0 0 0 101.61 123.66
  L 110.18 113.22
  A 0.86 0.86 0.0 0 0 109.79 111.86
  L 92.05 106.03
  A 0.86 0.86 0.0 0 0 91.03 107.27
  L 100.20 123.53
  Z"
/>
<circle fill="#024c3c" cx="283.85" cy="95.40" r="2.87"/>
<ellipse fill="#024c3c" cx="0.00" cy="0.00" transform="translate(268.35,95.41) rotate(-14.5)" rx="3.29" ry="2.87"/>
<ellipse fill="#024c3c" cx="0.00" cy="0.00" transform="translate(253.14,96.28) rotate(-4.9)" rx="3.15" ry="2.57"/>
<circle fill="#024c3c" cx="299.30" cy="97.11" r="2.99"/>
<ellipse fill="#024c3c" cx="0.00" cy="0.00" transform="translate(237.83,98.76) rotate(-14.8)" rx="2.93" ry="2.61"/>
<circle fill="#024c3c" cx="314.45" cy="100.51" r="2.91"/>
<ellipse fill="#024c3c" cx="0.00" cy="0.00" transform="translate(222.92,102.64) rotate(90.3)" rx="2.91" ry="2.60"/>
<ellipse fill="#024c3c" cx="0.00" cy="0.00" transform="translate(329.20,104.97) rotate(17.9)" rx="3.11" ry="2.65"/>
<circle fill="#024c3c" cx="208.55" cy="108.07" r="2.89"/>
<ellipse fill="#024c3c" cx="0.00" cy="0.00" transform="translate(343.30,111.20) rotate(19.4)" rx="3.18" ry="2.75"/>
<circle fill="#024c3c" cx="194.67" cy="114.59" r="2.82"/>
<circle fill="#024c3c" cx="357.08" cy="118.48" r="3.01"/>
<circle fill="#024c3c" cx="181.37" cy="122.51" r="2.84"/>
<circle fill="#024c3c" cx="369.96" cy="126.82" r="2.91"/>
<circle fill="#024c3c" cx="168.77" cy="131.78" r="2.73"/>
<path fill="#024c3c" d="
  M 66.81 151.47
  A 0.74 0.73 -12.9 0 0 66.13 152.54
  L 74.73 169.40
  A 4.00 4.00 0.0 0 1 72.40 175.02
  L 53.99 180.99
  A 0.74 0.74 0.0 0 0 53.95 182.39
  Q 66.72 187.28 79.00 192.98
  C 88.30 197.28 84.32 207.70 74.92 203.84
  Q 54.30 195.37 33.80 186.77
  Q 32.52 186.23 31.45 184.11
  C 29.65 180.58 31.18 176.15 35.00 174.97
  Q 47.44 171.13 59.66 167.51
  Q 61.06 167.10 60.38 165.82
  Q 54.56 154.80 49.00 143.43
  C 46.52 138.36 49.39 131.46 55.76 134.06
  Q 76.92 142.71 97.97 151.63
  C 106.00 155.04 100.91 165.33 93.56 162.44
  Q 80.39 157.27 67.41 151.63
  Q 67.08 151.48 66.81 151.47
  Z"
/>
<circle fill="#024c3c" cx="381.90" cy="136.63" r="2.91"/>
<circle fill="#024c3c" cx="157.51" cy="141.90" r="3.08"/>
<path fill="#024c3c" d="
  M 508.26 170.01
  A 29.72 29.72 0.0 0 1 478.54 199.73
  A 29.72 29.72 0.0 0 1 448.82 170.01
  A 29.72 29.72 0.0 0 1 478.54 140.29
  A 29.72 29.72 0.0 0 1 508.26 170.01
  Z
  M 496.91 170.09
  A 18.37 18.37 0.0 0 0 478.54 151.72
  A 18.37 18.37 0.0 0 0 460.17 170.09
  A 18.37 18.37 0.0 0 0 478.54 188.46
  A 18.37 18.37 0.0 0 0 496.91 170.09
  Z"
/>
<circle fill="#024c3c" cx="393.01" cy="147.58" r="3.01"/>
<circle fill="#024c3c" cx="146.82" cy="153.30" r="2.73"/>
<path fill="#024c3c" d="
  M 241.49 151.99
  C 254.01 149.33 267.77 153.06 279.04 158.77
  C 292.44 165.54 304.66 164.66 318.50 164.99
  C 325.11 165.15 328.77 172.05 333.34 176.04
  Q 333.73 176.38 334.21 176.19
  C 359.89 166.32 380.46 177.82 382.67 205.63
  C 384.23 225.31 374.59 238.41 363.77 253.57
  Q 349.83 273.09 335.99 292.69
  C 327.02 305.40 317.81 319.40 315.68 334.21
  Q 313.99 345.91 313.22 357.70
  Q 313.03 360.63 310.41 361.91
  C 280.91 376.30 242.53 367.17 214.42 353.33
  C 186.30 339.48 204.90 321.13 208.07 300.89
  C 211.03 281.94 207.66 261.94 200.84 243.43
  Q 194.68 226.73 195.55 208.21
  C 196.93 179.18 211.77 158.32 241.49 151.99
  Z
  M 298.59 264.02
  A 0.93 0.93 0.0 0 1 299.31 265.44
  C 296.26 270.29 292.40 279.95 295.12 285.48
  C 297.34 289.98 303.18 292.66 307.94 292.23
  C 318.47 291.29 326.30 274.56 331.10 266.59
  Q 332.04 265.02 333.34 265.38
  A 0.69 0.68 -66.2 0 1 333.73 266.41
  Q 325.07 280.17 316.56 293.57
  C 314.72 296.45 316.33 299.90 319.54 300.68
  C 331.21 303.53 365.97 245.54 370.98 235.36
  C 376.58 223.97 380.03 210.94 377.38 198.33
  C 375.65 190.08 370.10 180.89 362.07 177.46
  C 355.80 174.78 340.46 175.29 336.33 181.77
  C 334.14 185.21 335.78 195.65 335.54 198.27
  Q 333.33 222.16 314.94 237.19
  A 0.73 0.73 0.0 0 1 313.75 236.63
  L 313.75 235.87
  A 1.56 1.52 -27.5 0 1 314.05 234.96
  C 324.71 220.58 334.40 207.08 332.54 187.71
  C 330.66 168.15 312.38 164.71 296.17 166.39
  C 266.86 169.42 257.83 201.59 261.57 226.14
  Q 261.66 226.74 261.05 226.84
  L 260.18 226.99
  A 1.19 1.18 -8.3 0 1 258.80 225.97
  C 256.03 204.21 262.46 176.87 283.79 166.21
  A 1.20 1.20 0.0 0 0 283.88 164.11
  C 238.60 136.40 195.56 168.52 198.66 217.84
  Q 199.01 223.58 201.37 232.47
  C 205.39 247.57 209.49 261.61 211.47 277.14
  A 1.58 1.57 10.0 0 0 212.33 278.36
  C 219.83 282.12 215.65 248.99 215.43 246.53
  Q 214.60 237.25 216.83 246.30
  Q 219.36 256.57 219.49 269.60
  C 219.54 274.66 220.23 278.38 226.06 278.28
  A 1.42 1.40 24.1 0 0 226.94 277.95
  C 232.87 273.04 233.69 266.44 232.54 259.24
  C 232.44 258.59 232.61 257.98 233.03 257.55
  A 0.72 0.72 0.0 0 1 234.26 257.98
  L 235.93 274.74
  A 1.90 1.88 -78.2 0 0 236.87 276.19
  C 243.66 280.00 256.31 281.30 258.75 271.49
  Q 260.43 264.72 259.71 254.25
  Q 259.66 253.56 259.86 253.46
  A 0.65 0.65 0.0 0 1 260.80 253.97
  Q 262.00 264.54 262.29 275.16
  C 262.34 277.13 263.41 279.85 265.25 280.28
  Q 274.83 282.53 284.51 284.52
  C 292.66 286.20 296.33 263.86 298.59 264.02
  Z
  M 211.81 302.03
  Q 210.71 303.77 211.18 304.92
  Q 206.39 319.26 202.03 333.67
  C 201.39 335.80 202.27 336.96 204.51 336.59
  Q 259.00 327.58 308.02 351.82
  C 310.26 352.93 311.84 351.70 311.74 349.27
  Q 310.91 328.17 320.99 309.62
  Q 321.24 309.15 321.09 308.65
  Q 319.82 304.51 316.00 302.24
  Q 277.01 279.12 231.75 280.64
  C 224.38 280.89 219.68 280.98 214.08 283.96
  A 1.46 1.46 0.0 0 0 213.30 285.13
  L 211.81 302.03
  Z
  M 228.69 352.28
  C 250.00 362.62 285.21 372.89 307.18 360.19
  C 309.56 358.81 308.59 356.24 306.39 355.11
  Q 270.54 336.56 230.07 338.51
  C 219.17 339.04 221.47 348.77 228.69 352.28
  Z"
/>
<circle fill="#024c3c" cx="402.95" cy="159.13" r="2.89"/>
<circle fill="#024c3c" cx="137.39" cy="165.45" r="2.86"/>
<path fill="#024c3c" d="
  M 253.44 168.58
  C 242.42 175.47 235.99 184.43 234.40 197.58
  A 0.73 0.73 0.0 0 1 233.21 198.05
  Q 232.47 197.44 232.31 196.08
  C 230.91 183.60 241.55 171.72 251.97 167.43
  Q 253.13 166.95 253.63 167.86
  Q 253.87 168.31 253.44 168.58
  Z"
/>
<circle fill="#024c3c" cx="411.78" cy="171.82" r="2.93"/>
<circle fill="#024c3c" cx="129.13" cy="178.53" r="2.85"/>
<circle fill="#024c3c" cx="419.29" cy="185.14" r="2.83"/>
<circle fill="#024c3c" cx="122.00" cy="192.36" r="2.81"/>
<path fill="#024c3c" d="
  M 353.59 191.61
  A 0.47 0.47 0.0 0 1 354.30 191.04
  C 364.80 199.57 359.47 217.39 353.34 226.80
  A 0.63 0.63 0.0 0 1 352.23 226.22
  C 357.10 214.13 359.73 203.93 353.59 191.61
  Z"
/>
<ellipse fill="#024c3c" cx="0.00" cy="0.00" transform="translate(425.84,199.44) rotate(40.9)" rx="2.99" ry="2.65"/>
<ellipse fill="#024c3c" cx="0.00" cy="0.00" transform="translate(116.55,206.79) rotate(94.4)" rx="2.99" ry="2.45"/>
<path fill="#024c3c" d="
  M 167.71 234.27
  A 1.50 1.50 0.0 0 0 169.65 232.71
  L 167.53 207.75
  A 2.28 2.09 -28.1 0 1 168.11 206.10
  Q 168.69 205.47 169.92 205.92
  Q 172.14 206.72 172.51 209.21
  Q 175.02 226.13 178.02 244.11
  A 4.52 4.48 -35.6 0 1 177.53 246.99
  L 166.95 266.44
  A 1.58 1.51 56.4 0 0 166.78 267.39
  L 179.20 355.26
  Q 179.27 355.74 178.99 356.14
  Q 177.21 358.69 174.62 359.25
  C 167.40 360.80 166.11 355.27 165.40 349.34
  Q 160.64 309.66 156.13 269.92
  Q 155.96 268.39 155.62 266.87
  Q 155.52 266.38 155.17 266.03
  C 150.27 261.18 143.95 255.96 141.33 249.49
  Q 140.11 246.49 139.59 240.34
  Q 138.40 226.38 137.34 212.01
  A 1.84 1.82 -14.4 0 1 138.42 210.20
  Q 139.85 209.56 140.58 210.46
  Q 140.93 210.90 141.14 212.13
  Q 142.96 222.69 144.57 233.28
  Q 144.83 235.02 145.63 236.45
  A 1.83 1.83 0.0 0 0 148.49 236.87
  Q 149.42 235.98 149.30 234.74
  Q 148.14 222.29 147.15 209.82
  Q 147.11 209.30 147.57 209.05
  C 150.77 207.29 152.05 210.96 152.34 213.23
  C 153.19 220.07 153.52 227.57 155.64 234.14
  A 1.81 1.80 73.0 0 0 157.84 235.32
  C 160.14 234.68 159.48 232.85 159.30 231.09
  C 158.62 223.94 157.00 215.48 157.25 208.41
  Q 157.26 207.87 157.77 207.67
  C 159.92 206.83 161.43 207.74 161.78 210.02
  Q 163.39 220.39 164.98 230.75
  Q 165.41 233.55 167.71 234.27
  Z
  M 175.2246 243.2524
  A 0.92 0.92 0.0 0 0 174.6810 242.0703
  L 174.5872 242.0356
  A 0.92 0.92 0.0 0 0 173.4051 242.5793
  L 170.4354 250.6076
  A 0.92 0.92 0.0 0 0 170.9790 251.7897
  L 171.0728 251.8244
  A 0.92 0.92 0.0 0 0 172.2549 251.2807
  L 175.2246 243.2524
  Z"
/>
<circle fill="#024c3c" cx="431.00" cy="213.95" r="2.74"/>
<circle fill="#024c3c" cx="112.14" cy="221.61" r="2.92"/>
<ellipse fill="#024c3c" cx="0.00" cy="0.00" transform="translate(434.36,228.97) rotate(55.8)" rx="3.05" ry="2.72"/>
<circle fill="#024c3c" cx="109.42" cy="236.69" r="2.81"/>
<path fill="#024c3c" d="
  M 393.37 292.24
  Q 382.61 331.22 372.11 370.28
  Q 371.89 371.12 370.73 371.89
  C 366.90 374.40 361.89 370.63 360.54 367.12
  Q 360.35 366.64 360.50 366.15
  Q 371.82 328.50 383.49 291.00
  C 383.91 289.64 383.29 288.08 382.14 287.06
  C 370.81 277.10 375.71 258.32 383.43 247.90
  C 393.86 233.81 412.26 234.40 415.80 253.60
  C 418.67 269.12 411.94 289.41 394.06 291.64
  Q 393.52 291.71 393.37 292.24
  Z
  M 412.3056 269.1357
  A 5.62 1.08 97.2 0 0 414.0815 263.6954
  A 5.62 1.08 97.2 0 0 413.7144 257.9843
  A 5.62 1.08 97.2 0 0 411.9385 263.4246
  A 5.62 1.08 97.2 0 0 412.3056 269.1357
  Z"
/>
<circle fill="#024c3c" cx="436.58" cy="244.06" r="2.69"/>
<circle fill="#024c3c" cx="107.76" cy="252.02" r="2.78"/>
<circle fill="#024c3c" cx="437.28" cy="259.55" r="2.98"/>
<ellipse fill="#024c3c" cx="0.00" cy="0.00" transform="translate(107.99,267.55) rotate(110.3)" rx="2.92" ry="2.50"/>
<circle fill="#024c3c" cx="436.40" cy="275.47" r="2.89"/>
<circle fill="#024c3c" cx="109.33" cy="282.94" r="2.76"/>
<circle fill="#024c3c" cx="434.27" cy="290.65" r="2.95"/>
<circle fill="#024c3c" cx="112.14" cy="297.97" r="2.82"/>
<path fill="#397964" fill-opacity="0.933" d="
  M 211.18 304.92
  Q 210.71 303.77 211.81 302.03
  Q 216.45 303.03 217.36 307.20
  A 0.98 0.98 0.0 0 0 219.30 306.94
  L 218.95 300.74
  A 1.85 1.85 0.0 0 1 220.56 298.81
  C 222.95 298.51 223.42 302.08 223.55 303.84
  A 1.37 1.35 18.6 0 0 224.02 304.77
  Q 226.17 306.64 226.95 304.19
  C 227.78 301.59 226.75 299.96 228.42 297.31
  A 1.72 1.72 0.0 0 1 231.51 297.70
  Q 232.75 301.54 235.92 303.91
  A 0.88 0.88 0.0 0 0 237.30 303.03
  L 236.19 297.59
  A 1.42 1.42 0.0 0 1 237.70 295.90
  L 242.17 296.28
  A 0.86 0.86 0.0 0 1 242.94 297.06
  L 243.35 302.57
  A 0.80 0.80 0.0 0 0 244.66 303.13
  C 246.35 301.73 245.37 298.00 247.35 295.76
  A 1.56 1.55 56.4 0 1 249.99 296.30
  L 251.30 300.22
  A 0.73 0.73 0.0 0 0 252.69 300.18
  C 253.04 298.89 253.83 296.35 255.26 295.92
  Q 256.14 295.65 256.86 296.34
  C 258.91 298.32 256.35 303.83 259.49 304.67
  Q 260.05 304.82 260.12 304.24
  Q 260.49 301.41 260.74 298.84
  Q 260.90 297.21 262.58 297.86
  A 0.98 0.98 0.0 0 1 263.20 298.96
  L 262.11 304.73
  A 1.83 1.82 10.1 0 1 260.01 306.19
  C 244.97 303.59 230.39 306.13 216.10 311.27
  A 1.17 1.17 0.0 0 1 214.59 310.52
  C 213.97 308.58 213.73 305.56 211.18 304.92
  Z"
/>
<path fill="#397964" fill-opacity="0.933" d="
  M 270.33 298.57
  A 1.38 1.38 0.0 0 1 271.12 300.99
  Q 268.44 303.34 267.85 306.92
  A 1.26 1.25 -62.9 0 1 265.73 307.61
  L 265.36 307.24
  Q 264.95 306.82 265.25 306.32
  Q 267.32 302.83 266.05 298.93
  A 0.52 0.52 0.0 0 1 266.59 298.25
  L 270.33 298.57
  Z"
/>
<path fill="#397964" fill-opacity="0.933" d="
  M 273.94 309.31
  Q 272.29 309.23 270.86 309.25
  A 0.68 0.67 20.8 0 1 270.35 308.12
  L 276.59 301.32
  A 1.72 1.72 0.0 0 1 279.56 302.70
  Q 278.86 308.18 282.30 312.47
  A 0.82 0.82 0.0 0 1 281.45 313.77
  C 278.50 312.98 276.10 309.42 273.94 309.31
  Z"
/>
<circle fill="#024c3c" cx="430.92" cy="305.73" r="2.91"/>
<path fill="#397964" fill-opacity="0.933" d="
  M 291.49 316.33
  C 293.09 314.25 295.67 310.62 298.48 313.01
  Q 302.11 316.09 299.73 320.30
  A 0.45 0.44 34.6 0 1 299.06 320.42
  Q 297.15 318.83 298.00 316.43
  A 0.99 0.99 0.0 0 0 296.45 315.32
  L 294.13 317.17
  A 1.26 1.25 -63.3 0 0 294.87 319.41
  Q 296.71 319.45 297.44 321.10
  A 0.65 0.65 0.0 0 1 296.87 322.01
  Q 292.30 322.19 290.56 318.13
  Q 290.35 317.65 289.85 317.53
  C 285.08 316.41 280.59 309.96 284.76 305.60
  A 1.64 1.64 0.0 0 1 287.56 306.96
  L 286.96 311.17
  A 1.07 1.07 0.0 0 0 288.97 311.80
  L 290.15 309.45
  A 1.16 1.15 70.2 0 1 292.24 310.44
  Q 291.43 312.31 290.35 314.03
  Q 289.25 315.81 290.18 316.51
  Q 290.92 317.07 291.49 316.33
  Z"
/>
<circle fill="#024c3c" cx="116.51" cy="312.83" r="2.83"/>
<circle fill="#024c3c" cx="425.88" cy="320.19" r="2.94"/>
<path fill="#397964" fill-opacity="0.933" d="
  M 308.85 324.68
  A 4.90 4.90 0.0 0 1 303.95 329.58
  A 4.90 4.90 0.0 0 1 299.05 324.68
  A 4.90 4.90 0.0 0 1 303.95 319.78
  A 4.90 4.90 0.0 0 1 308.85 324.68
  Z
  M 302.9884 327.2636
  A 3.06 2.46 110.1 0 0 306.3502 325.2354
  A 3.06 2.46 110.1 0 0 305.0916 321.5164
  A 3.06 2.46 110.1 0 0 301.7298 323.5446
  A 3.06 2.46 110.1 0 0 302.9884 327.2636
  Z"
/>
<circle fill="#024c3c" cx="122.14" cy="327.34" r="2.98"/>
<circle fill="#024c3c" cx="419.43" cy="334.34" r="2.80"/>
<circle fill="#024c3c" cx="129.17" cy="341.00" r="2.82"/>
<circle fill="#024c3c" cx="411.72" cy="347.70" r="2.83"/>
<ellipse fill="#024c3c" cx="0.00" cy="0.00" transform="translate(137.35,354.08) rotate(17.5)" rx="2.99" ry="2.66"/>
<circle fill="#024c3c" cx="402.91" cy="360.39" r="2.92"/>
<circle fill="#024c3c" cx="146.65" cy="366.29" r="2.82"/>
<circle fill="#024c3c" cx="392.98" cy="372.11" r="2.97"/>
<ellipse fill="#024c3c" cx="0.00" cy="0.00" transform="translate(157.42,377.52) rotate(34.1)" rx="3.00" ry="2.65"/>
<circle fill="#024c3c" cx="382.04" cy="383.00" r="2.81"/>
<ellipse fill="#024c3c" cx="0.00" cy="0.00" transform="translate(168.81,387.79) rotate(73.1)" rx="2.81" ry="2.34"/>
<circle fill="#024c3c" cx="369.92" cy="392.63" r="2.90"/>
<circle fill="#024c3c" cx="181.32" cy="396.81" r="2.82"/>
<circle fill="#024c3c" cx="357.02" cy="401.24" r="2.81"/>
<circle fill="#024c3c" cx="194.62" cy="404.93" r="2.80"/>
<circle fill="#024c3c" cx="343.34" cy="408.48" r="3.02"/>
<circle fill="#024c3c" cx="208.63" cy="411.64" r="2.65"/>
<circle fill="#024c3c" cx="329.11" cy="414.44" r="2.98"/>
<circle fill="#024c3c" cx="222.97" cy="416.93" r="2.76"/>
<circle fill="#024c3c" cx="314.47" cy="419.02" r="2.92"/>
<circle fill="#024c3c" cx="237.93" cy="420.77" r="2.89"/>
<circle fill="#024c3c" cx="299.25" cy="422.27" r="2.92"/>
<circle fill="#024c3c" cx="253.33" cy="423.39" r="2.89"/>
<circle fill="#024c3c" cx="268.59" cy="424.33" r="2.87"/>
<ellipse fill="#024c3c" cx="0.00" cy="0.00" transform="translate(284.02,424.00) rotate(-7.7)" rx="2.94" ry="2.61"/>
</svg>
