<?xml version="1.0" encoding="UTF-8" standalone="no"?>
<!DOCTYPE svg PUBLIC "-//W3C//DTD SVG 1.1//EN" "http://www.w3.org/Graphics/SVG/1.1/DTD/svg11.dtd">
<svg xmlns="http://www.w3.org/2000/svg" version="1.1" viewBox="0.00 0.00 1099.00 227.00">
<path fill="#f28f49" d="
  M 0.00 163.81
  L 0.00 154.90
  Q 16.59 154.96 30.54 147.01
  A 1.65 1.65 0.0 0 0 31.16 144.78
  Q 26.33 136.17 35.32 131.99
  Q 35.97 131.69 35.82 130.99
  L 35.37 128.86
  A 0.76 0.75 69.1 0 0 34.27 128.36
  L 32.08 129.60
  Q 31.67 129.83 31.21 129.76
  Q 28.91 129.42 28.69 126.96
  A 1.23 1.20 65.9 0 1 29.04 126.01
  Q 37.36 117.72 49.10 116.42
  A 1.50 1.50 0.0 0 0 49.72 113.66
  C 48.08 112.64 42.52 109.91 43.90 107.46
  C 44.66 106.13 46.33 105.82 47.59 105.19
  A 1.16 1.16 0.0 0 0 47.22 103.00
  Q 35.68 101.55 25.29 99.95
  C 23.71 99.71 22.40 98.46 22.99 96.88
  C 23.51 95.45 25.86 94.68 26.97 93.34
  A 0.94 0.94 0.0 0 0 26.34 91.81
  L 19.59 91.14
  A 2.37 2.36 1.3 0 1 17.46 88.92
  L 17.17 83.41
  A 2.02 2.01 88.5 0 0 15.16 81.50
  L 9.76 81.50
  A 1.99 1.99 0.0 0 1 8.01 78.55
  L 13.10 69.25
  A 1.07 1.04 4.7 0 1 13.71 68.75
  Q 20.05 66.74 26.22 64.67
  C 28.01 64.07 27.98 62.68 27.59 60.98
  C 26.07 54.45 26.45 44.99 30.55 39.07
  Q 30.85 38.64 31.37 38.61
  L 34.25 38.44
  A 1.59 1.58 -32.2 0 0 34.93 35.47
  C 32.55 34.15 27.14 32.56 28.07 28.87
  C 31.40 15.77 42.88 12.58 55.24 13.47
  C 114.63 17.77 173.27 16.68 232.59 11.86
  C 247.25 10.68 258.85 10.86 272.82 11.91
  C 285.64 12.86 300.42 8.95 312.81 7.81
  C 323.85 6.80 335.43 12.36 347.56 12.47
  C 409.87 13.04 468.92 13.82 534.31 11.31
  Q 549.00 10.75 565.84 12.82
  C 582.09 14.83 598.07 12.65 614.09 12.74
  C 638.41 12.87 662.98 14.30 687.24 13.49
  C 721.16 12.35 750.80 11.20 788.94 11.67
  Q 824.29 12.11 859.65 12.56
  A 1.63 1.60 28.3 0 0 860.58 12.29
  C 865.94 8.81 868.43 6.95 874.24 7.27
  Q 922.13 9.87 970.81 8.40
  A 0.72 0.72 0.0 0 1 970.99 9.82
  L 964.71 11.17
  A 1.36 1.35 48.1 0 0 964.57 13.78
  Q 967.65 14.81 971.46 15.50
  Q 1003.54 21.28 1036.14 21.03
  C 1041.27 20.99 1044.69 19.39 1048.57 16.50
  A 1.00 1.00 0.0 0 0 1047.89 14.70
  C 1042.36 15.14 1037.34 18.56 1032.37 14.68
  A 0.45 0.45 0.0 0 1 1032.55 13.89
  Q 1056.76 8.67 1078.34 20.66
  C 1080.26 21.73 1080.42 23.84 1080.72 26.28
  Q 1081.91 35.91 1074.35 42.48
  A 2.06 2.06 0.0 0 0 1073.91 45.06
  Q 1079.75 55.31 1070.36 61.77
  A 1.27 1.27 0.0 0 0 1070.02 63.52
  C 1077.93 75.29 1077.97 82.59 1064.88 89.99
  A 1.99 1.98 76.2 0 0 1063.87 91.67
  Q 1063.83 93.54 1065.81 93.99
  Q 1076.21 96.38 1086.62 98.79
  A 1.18 1.18 0.0 0 1 1087.36 99.32
  C 1096.60 114.11 1073.51 114.58 1066.22 114.63
  A 1.70 1.70 0.0 0 0 1065.07 117.58
  Q 1069.81 121.94 1071.64 128.05
  A 1.68 1.68 0.0 0 1 1069.81 130.20
  L 1061.74 129.13
  A 1.20 1.20 0.0 0 0 1061.25 131.48
  C 1075.64 135.60 1089.78 137.42 1095.19 153.04
  C 1096.38 156.46 1090.40 155.70 1088.61 155.83
  Q 1088.06 155.87 1088.02 156.41
  C 1087.81 159.03 1090.31 162.73 1087.25 164.13
  Q 1082.43 166.32 1076.26 164.74
  Q 1074.01 164.16 1073.79 166.49
  Q 1073.75 166.92 1074.11 167.16
  L 1077.25 169.20
  A 1.33 1.33 0.0 0 1 1076.58 171.65
  L 1057.80 172.45
  A 2.67 2.67 0.0 0 0 1055.40 174.19
  C 1051.91 183.45 1045.76 194.39 1038.20 201.09
  A 1.08 1.08 0.0 0 1 1037.30 201.34
  Q 1034.48 200.84 1032.11 202.00
  C 1030.23 202.93 1029.61 205.20 1027.51 206.00
  Q 1021.98 208.12 1014.93 207.87
  Q 980.67 206.64 946.42 208.00
  C 920.18 209.04 893.82 208.60 867.55 209.04
  Q 848.83 209.35 830.16 208.00
  Q 819.12 207.21 810.81 207.26
  C 756.48 207.60 702.38 207.65 648.08 205.42
  Q 638.21 205.02 629.00 203.82
  C 620.58 202.72 612.38 201.12 603.88 201.26
  C 539.90 202.27 482.79 200.62 422.25 200.29
  C 391.01 200.13 359.74 197.00 328.51 198.04
  C 299.65 199.00 270.68 200.23 241.81 200.50
  C 222.85 200.68 202.53 201.58 184.81 200.95
  C 153.44 199.83 127.87 198.84 101.00 200.43
  Q 83.49 201.47 66.51 205.64
  Q 60.06 207.22 57.86 206.96
  C 51.93 206.23 51.16 201.05 48.46 196.77
  A 1.09 1.08 -14.6 0 0 47.60 196.27
  L 38.34 195.78
  A 1.67 1.67 0.0 0 1 37.42 192.78
  L 41.94 189.35
  A 0.88 0.87 -20.5 0 0 42.28 188.62
  C 42.14 185.39 36.61 187.32 35.04 187.57
  A 1.22 1.19 58.3 0 1 34.16 187.35
  C 30.33 184.47 32.09 179.40 29.37 178.06
  Q 14.68 170.83 0.00 163.81
  Z
  M 438.65 138.81
  L 438.71 142.07
  A 0.62 0.62 0.0 0 0 439.34 142.68
  L 452.48 142.45
  A 25.30 2.12 -1.0 0 0 477.74 139.89
  L 477.73 139.63
  A 25.30 2.12 -1.0 0 0 452.40 137.95
  L 439.26 138.18
  A 0.62 0.62 0.0 0 0 438.65 138.81
  Z
  M 950.7959 165.9540
  A 4.68 2.04 -2.4 0 0 946.0346 164.1118
  A 4.68 2.04 -2.4 0 0 941.4441 166.3460
  A 4.68 2.04 -2.4 0 0 946.2054 168.1882
  A 4.68 2.04 -2.4 0 0 950.7959 165.9540
  Z
  M 781.8606 196.5809
  A 19.13 1.61 1.8 0 0 762.7906 194.3708
  A 19.13 1.61 1.8 0 0 743.6194 195.3791
  A 19.13 1.61 1.8 0 0 762.6894 197.5892
  A 19.13 1.61 1.8 0 0 781.8606 196.5809
  Z"
/>
</svg>
